HIERARCHY
ROOT Hips
{
 OFFSET 0.000000 0.000000 0.000000
 CHANNELS 6 Xposition Yposition Zposition Yrotation Xrotation Zrotation
 JOINT Chest
 {
  OFFSET 0.000000 9.585900 0.002600
  CHANNELS 3 Yrotation Xrotation Zrotation
  JOINT Chest2
  {
   OFFSET 0.000000 9.601200 -0.005300
   CHANNELS 3 Yrotation Xrotation Zrotation
   JOINT Chest3
   {
    OFFSET 0.000000 9.561800 0.000000
    CHANNELS 3 Yrotation Xrotation Zrotation
    JOINT Chest4
    {
     OFFSET 0.000000 9.552100 0.000000
     CHANNELS 3 Yrotation Xrotation Zrotation
     JOINT Neck
     {
      OFFSET 0.000000 14.453000 0.000000
      CHANNELS 3 Yrotation Xrotation Zrotation
      JOINT Head
      {
       OFFSET 0.000000 8.936500 -0.011300
       CHANNELS 3 Yrotation Xrotation Zrotation
       End Site
       {
        OFFSET 0.000000 17.073600 -0.006000
       }
      }
     }
     JOINT RightCollar
     {
      OFFSET -2.921100 9.558500 0.000000
      CHANNELS 3 Yrotation Xrotation Zrotation
      JOINT RightShoulder
      {
       OFFSET -13.519700 0.000000 0.000000
       CHANNELS 3 Yrotation Xrotation Zrotation
       JOINT RightElbow
       {
        OFFSET 0.000000 -29.696600 0.000000
        CHANNELS 3 Yrotation Xrotation Zrotation
        JOINT RightWrist
        {
         OFFSET 0.000000 -24.004700 0.000000
         CHANNELS 3 Yrotation Xrotation Zrotation
         End Site
         {
          OFFSET 0.000000 -17.728500 0.000000
         }
        }
       }
      }
     }
     JOINT LeftCollar
     {
      OFFSET 2.921100 9.558500 0.000000
      CHANNELS 3 Yrotation Xrotation Zrotation
      JOINT LeftShoulder
      {
       OFFSET 13.519700 0.000000 0.000000
       CHANNELS 3 Yrotation Xrotation Zrotation
       JOINT LeftElbow
       {
        OFFSET 0.000000 -29.696600 0.000000
        CHANNELS 3 Yrotation Xrotation Zrotation
        JOINT LeftWrist
        {
         OFFSET 0.000000 -24.004700 0.000000
         CHANNELS 3 Yrotation Xrotation Zrotation
         End Site
         {
          OFFSET 0.000000 -17.728500 0.000000
         }
        }
       }
      }
     }
    }
   }
  }
 }
 JOINT RightHip
 {
  OFFSET -7.771700 -0.012900 -0.001300
  CHANNELS 3 Yrotation Xrotation Zrotation
  JOINT RightKnee
  {
   OFFSET 0.000000 -40.869800 0.001200
   CHANNELS 3 Yrotation Xrotation Zrotation
   JOINT RightAnkle
   {
    OFFSET 0.000000 -39.717900 0.002100
    CHANNELS 3 Yrotation Xrotation Zrotation
    JOINT RightToe
    {
     OFFSET 0.000000 -4.965400 11.033500
     CHANNELS 3 Yrotation Xrotation Zrotation
     End Site
     {
      OFFSET 0.000000 -1.423100 5.872300
     }
    }
   }
  }
 }
 JOINT LeftHip
 {
  OFFSET 7.771700 -0.012900 -0.001300
  CHANNELS 3 Yrotation Xrotation Zrotation
  JOINT LeftKnee
  {
   OFFSET 0.000000 -40.869800 0.001200
   CHANNELS 3 Yrotation Xrotation Zrotation
   JOINT LeftAnkle
   {
    OFFSET 0.000000 -39.717900 0.002100
    CHANNELS 3 Yrotation Xrotation Zrotation
    JOINT LeftToe
    {
     OFFSET 0.000000 -4.965400 11.033500
     CHANNELS 3 Yrotation Xrotation Zrotation
     End Site
     {
      OFFSET 0.000000 -1.423100 5.872300
     }
    }
   }
  }
 }
}
MOTION
Frames: 5
Frame Time: 0.008333
0.000000 85.388000 0.000000 0.000000 -5.767877 0.000000 0.000000 11.653817 0.000000 0.000000 -5.885947 0.000000 0.000000 -0.000000 0.000000 0.000000 -0.000000 0.000000 0.000000 12.528835 0.000000 0.000000 0.711642 0.000000 0.000000 -0.000000 0.000000 0.000000 0.000000 -90.000000 0.000000 -2.309062 0.000000 0.000000 2.309062 0.000000 0.000000 -0.000000 0.000000 0.000000 -0.000000 90.000000 0.000000 -2.309062 0.000000 0.000000 2.309062 0.000000 0.000000 8.520406 0.000000 0.000000 1.905762 0.000000 -0.000000 -4.658285 0.000000 0.000000 -0.000000 0.000000 0.000000 8.520406 0.000000 0.000000 1.905762 0.000000 -0.000000 -4.658285 0.000000 0.000000 -0.000000 0.000000
-206.410734 57.877944 27.027504 172.482837 -47.160446 -2.697348 4.887073 20.293160 3.153882 2.566315 11.638782 1.628415 3.265214 14.523001 2.135564 2.556128 11.628685 1.632990 0.527086 18.405235 1.030435 0.668941 -1.591947 1.675447 0.499169 2.844690 0.961944 4.889059 -11.953387 -11.125093 -58.159464 -51.614145 108.342356 -4.156693 3.828582 -28.262553 -9.759613 -0.413932 -0.947913 -3.920578 -12.125949 14.496863 38.748957 -32.409901 -98.189618 14.430651 -8.766049 11.940949 4.898308 -25.329334 -0.938966 -39.372169 73.496360 -41.419687 5.379799 -12.726464 10.063172 0.010823 -0.167596 0.007937 -4.165444 -23.836311 10.188894 55.603959 79.139279 55.307268 5.366097 -15.758397 -17.506110 0.063948 0.135511 0.032448
-206.411473 57.879955 27.026307 172.477547 -47.183023 -2.690100 4.878942 20.303075 3.153667 2.544576 11.629575 1.635857 3.269430 14.537761 2.127567 2.550056 11.628293 1.634502 0.577771 18.579451 0.996969 0.769703 -1.266387 1.600040 0.496830 2.871557 0.959808 4.855053 -11.996568 -11.115631 -57.942442 -51.426310 108.202987 -4.263551 3.803166 -28.317067 -9.746589 -0.395767 -0.957406 -3.893331 -12.133068 14.496348 38.715071 -32.333471 -98.185473 14.444239 -8.827668 12.049282 4.904360 -25.305154 -0.935626 -39.385071 73.489832 -41.438664 5.381812 -12.722993 10.066267 0.004955 -0.169752 0.009677 -4.158851 -23.808753 10.187665 55.579815 79.138782 55.280791 5.349167 -15.763911 -17.504180 0.063063 0.136771 0.032945
-206.412594 57.880441 27.026674 172.479638 -47.195059 -2.688094 4.866068 20.300248 3.151157 2.542059 11.634943 1.636344 3.261003 14.535210 2.134401 2.533469 11.623125 1.642253 0.630796 18.753272 0.954531 0.869699 -0.954714 1.532816 0.501759 2.907113 0.947644 4.819397 -12.033262 -11.107039 -57.740123 -51.250341 108.081015 -4.359176 3.787334 -28.391935 -9.721200 -0.377123 -0.987208 -3.874347 -12.133721 14.505123 38.707930 -32.325040 -98.132344 14.385045 -8.868464 12.118935 4.905328 -25.291529 -0.937096 -39.386290 73.486697 -41.442465 5.387340 -12.723183 10.066733 -0.003172 -0.169438 0.010641 -4.159605 -23.792563 10.185047 55.549108 79.128934 55.246668 5.342585 -15.762723 -17.506437 0.065983 0.141053 0.035392
-206.413048 57.880532 27.027757 172.479764 -47.205830 -2.690164 4.862512 20.302876 3.153802 2.542298 11.639682 1.636252 3.230969 14.511697 2.142645 2.549936 11.645889 1.631185 0.671718 18.897451 0.934692 0.967088 -0.665037 1.473875 0.496694 2.925277 0.951621 4.773586 -12.061775 -11.091733 -57.550353 -51.092326 107.974825 -4.445679 3.775095 -28.484080 -9.723822 -0.368524 -0.996082 -3.828570 -12.136122 14.534579 38.745584 -32.428424 -98.104174 14.340840 -8.869991 12.166767 4.905002 -25.280190 -0.932973 -39.386558 73.485294 -41.444431 5.391541 -12.725160 10.067788 0.004006 -0.166660 0.009962 -4.163053 -23.778415 10.186660 55.540686 79.125656 55.233690 5.358067 -15.768870 -17.510845 0.069436 0.149521 0.035840
